<mxfile host="65bd71144e">
    <diagram id="TK4xnjcn9UEXUmTVJC3C" name="Page-1">
        <mxGraphModel dx="1715" dy="803" grid="1" gridSize="10" guides="1" tooltips="1" connect="1" arrows="1" fold="1" page="1" pageScale="1" pageWidth="850" pageHeight="1100" math="0" shadow="0">
            <root>
                <mxCell id="0"/>
                <mxCell id="1" parent="0"/>
                <mxCell id="4" value="draw call data" style="whiteSpace=wrap;html=1;" parent="1" vertex="1">
                    <mxGeometry x="220" y="320" width="120" height="60" as="geometry"/>
                </mxCell>
                <mxCell id="5" value="See Engine::drawGeometry():: drawObject()" style="text;html=1;align=center;verticalAlign=middle;resizable=0;points=[];autosize=1;fillColor=#dae8fc;strokeColor=#6c8ebf;" parent="1" vertex="1">
                    <mxGeometry x="150" y="90" width="260" height="30" as="geometry"/>
                </mxCell>
                <mxCell id="14" style="edgeStyle=none;html=1;" parent="1" source="12" target="4" edge="1">
                    <mxGeometry relative="1" as="geometry"/>
                </mxCell>
                <mxCell id="12" value="scene data&lt;br&gt;VP matrix, ambient, light source...&lt;br&gt;through uniform buffer&lt;br&gt;bind by frame ds" style="whiteSpace=wrap;html=1;" parent="1" vertex="1">
                    <mxGeometry x="390" y="310" width="220" height="80" as="geometry"/>
                </mxCell>
                <mxCell id="13" value="pipeline is in&lt;br&gt;MaterialInstance" style="rounded=1;whiteSpace=wrap;html=1;" parent="1" vertex="1">
                    <mxGeometry x="-35" y="510" width="120" height="60" as="geometry"/>
                </mxCell>
                <mxCell id="16" style="edgeStyle=none;html=1;" parent="1" source="15" target="4" edge="1">
                    <mxGeometry relative="1" as="geometry"/>
                </mxCell>
                <mxCell id="15" value="material data&lt;br&gt;material constants and textures&lt;br&gt;through image and uniform buffrer&lt;br&gt;bind by material ds" style="whiteSpace=wrap;html=1;" parent="1" vertex="1">
                    <mxGeometry x="-95" y="430" width="240" height="70" as="geometry"/>
                </mxCell>
                <mxCell id="18" style="edgeStyle=none;html=1;" parent="1" source="17" target="4" edge="1">
                    <mxGeometry relative="1" as="geometry"/>
                </mxCell>
                <mxCell id="17" value="mesh index&lt;br&gt;through index buffer&lt;br&gt;bind directly" style="whiteSpace=wrap;html=1;" parent="1" vertex="1">
                    <mxGeometry x="-35" y="230" width="120" height="60" as="geometry"/>
                </mxCell>
                <mxCell id="22" style="edgeStyle=none;html=1;" parent="1" source="19" target="4" edge="1">
                    <mxGeometry relative="1" as="geometry"/>
                </mxCell>
                <mxCell id="19" value="mesh vertex&lt;br&gt;through vertex buffer address&lt;br&gt;bind by push constants" style="whiteSpace=wrap;html=1;" parent="1" vertex="1">
                    <mxGeometry x="-70" y="300" width="190" height="60" as="geometry"/>
                </mxCell>
                <mxCell id="21" style="edgeStyle=none;html=1;" parent="1" source="20" target="4" edge="1">
                    <mxGeometry relative="1" as="geometry"/>
                </mxCell>
                <mxCell id="20" value="model to world transform (M matrix)&lt;br&gt;glm::mat4 direct&lt;br&gt;bind by push constants" style="whiteSpace=wrap;html=1;" parent="1" vertex="1">
                    <mxGeometry x="-85" y="360" width="220" height="60" as="geometry"/>
                </mxCell>
                <mxCell id="23" value="Per-object data" style="text;html=1;align=center;verticalAlign=middle;resizable=0;points=[];autosize=1;strokeColor=none;fillColor=none;" parent="1" vertex="1">
                    <mxGeometry x="-25" y="160" width="100" height="30" as="geometry"/>
                </mxCell>
                <mxCell id="24" value="Global data" style="text;html=1;align=center;verticalAlign=middle;resizable=0;points=[];autosize=1;strokeColor=none;fillColor=none;" parent="1" vertex="1">
                    <mxGeometry x="460" y="160" width="80" height="30" as="geometry"/>
                </mxCell>
            </root>
        </mxGraphModel>
    </diagram>
</mxfile>